<svg width="55" height="55" viewBox="0 0 55 55" fill="none" xmlns="http://www.w3.org/2000/svg">
<g clip-path="url(#clip0_2_733)" filter="url(#filter0_d_2_733)">
<path d="M37.1447 16.3051C38.3706 16.3051 39.3644 15.3113 39.3644 14.0854C39.3644 12.8594 38.3706 11.8656 37.1447 11.8656C35.9187 11.8656 34.9249 12.8594 34.9249 14.0854C34.9249 15.3113 35.9187 16.3051 37.1447 16.3051Z" fill="#303030"/>
<path d="M27.5604 32.833C22.4596 32.833 18.3114 28.6849 18.3114 23.5841C18.3114 18.4833 22.4596 14.3351 27.5604 14.3351C32.6612 14.3351 36.8093 18.4833 36.8093 23.5841C36.8093 28.6849 32.6612 32.833 27.5604 32.833ZM27.5604 18.9596C25.01 18.9596 22.9359 21.0337 22.9359 23.5841C22.9359 26.1345 25.01 28.2086 27.5604 28.2086C30.1108 28.2086 32.1848 26.1345 32.1848 23.5841C32.1848 21.0337 30.1108 18.9596 27.5604 18.9596Z" fill="#303030"/>
<path d="M36.8094 42.082H18.3115C13.5575 42.082 9.0625 37.587 9.0625 32.833V14.3351C9.0625 9.58114 13.5575 5.08615 18.3115 5.08615H36.8094C41.5633 5.08615 46.0583 9.58114 46.0583 14.3351V32.833C46.0583 37.587 41.5633 42.082 36.8094 42.082ZM18.3115 9.71063C16.1495 9.71063 13.687 12.1732 13.687 14.3351V32.833C13.687 35.0366 16.1079 37.4575 18.3115 37.4575H36.8094C38.9713 37.4575 41.4339 34.995 41.4339 32.833V14.3351C41.4339 12.1732 38.9713 9.71063 36.8094 9.71063H18.3115Z" fill="#303030"/>
</g>
<defs>
<filter id="filter0_d_2_733" x="0.525" y="0.343095" width="54.0709" height="54.0708" filterUnits="userSpaceOnUse" color-interpolation-filters="sRGB">
<feFlood flood-opacity="0" result="BackgroundImageFix"/>
<feColorMatrix in="SourceAlpha" type="matrix" values="0 0 0 0 0 0 0 0 0 0 0 0 0 0 0 0 0 0 127 0" result="hardAlpha"/>
<feOffset dy="3.79444"/>
<feGaussianBlur stdDeviation="4.26875"/>
<feColorMatrix type="matrix" values="0 0 0 0 0 0 0 0 0 0 0 0 0 0 0 0 0 0 0.11 0"/>
<feBlend mode="normal" in2="BackgroundImageFix" result="effect1_dropShadow_2_733"/>
<feBlend mode="normal" in="SourceGraphic" in2="effect1_dropShadow_2_733" result="shape"/>
</filter>
<clipPath id="clip0_2_733">
<rect width="36.9958" height="36.9958" fill="white" transform="translate(9.0625 5.08615)"/>
</clipPath>
</defs>
</svg>
