<svg width="16" height="16" viewBox="0 0 16 16" fill="none" xmlns="http://www.w3.org/2000/svg">
<path d="M12.0706 8.3243L12.0706 7.10255L9.0183 7.10255L9.0183 0.528238L15.5928 0.528238L15.5928 7.10255L15.5926 7.10255L15.5926 8.3243C15.5926 10.8052 14.8788 12.6474 13.4709 13.8C12.497 14.5973 11.2642 15.0016 9.80671 15.0016L9.80671 11.4798C10.5979 11.4798 12.0706 11.4798 12.0706 8.3243ZM1.20333 11.4798L1.20333 15.0016C2.66073 15.0016 3.89352 14.5973 4.86745 13.8C6.27535 12.6474 6.98923 10.8051 6.98923 8.3243L6.98923 7.10255L6.98923 0.528238L0.414997 0.528237L0.414997 7.10255L3.46733 7.10255L3.46733 8.3243C3.46725 11.4798 1.99452 11.4798 1.20333 11.4798Z" fill="#0159B1"/>
</svg>
